<?xml version="1.0" encoding="iso-8859-1"?>
<!-- Generator: Adobe Illustrator 19.0.0, SVG Export Plug-In . SVG Version: 6.00 Build 0)  -->
<svg version="1.1" id="Capa_1" xmlns="http://www.w3.org/2000/svg" xmlns:xlink="http://www.w3.org/1999/xlink" x="0px" y="0px"
	 viewBox="0 0 496 496" style="fill:#712efc;" xml:space="preserve">
<g>
	<g>
		<path d="M472,28H24C10.745,28,0,38.745,0,52v304c0,13.255,10.745,24,24,24h166.936l-6,48H176
			c-3.445-0.001-6.503,2.204-7.592,5.472l-8,24c-1.396,4.192,0.87,8.722,5.062,10.118c0.816,0.272,1.67,0.41,2.53,0.41h160
			c4.418,0.001,8.001-3.58,8.002-7.998c0-0.86-0.138-1.714-0.41-2.53l-8-24c-1.089-3.268-4.147-5.473-7.592-5.472h-8.936l-6-48H472
			c13.255,0,24-10.745,24-24V52C496,38.745,485.255,28,472,28z M314.232,444l2.672,8H179.096l2.672-8H314.232z M201.064,428l6-48
			h81.872l6,48H201.064z M480,356c0,4.418-3.582,8-8,8H24c-4.418,0-8-3.582-8-8v-24h464V356z M480,316H16V52c0-4.418,3.582-8,8-8
			h448c4.418,0,8,3.582,8,8V316z"/>
	</g>
</g>
<g>
	<g>
		<path d="M248,148c-13.255,0-24,10.745-24,24s10.745,24,24,24s24-10.745,24-24S261.255,148,248,148z M248,180c-4.418,0-8-3.582-8-8
			s3.582-8,8-8s8,3.582,8,8S252.418,180,248,180z"/>
	</g>
</g>
<g>
	<g>
		<path d="M328,148c-13.255,0-24,10.745-24,24s10.745,24,24,24s24-10.745,24-24S341.255,148,328,148z M328,180c-4.418,0-8-3.582-8-8
			s3.582-8,8-8s8,3.582,8,8S332.418,180,328,180z"/>
	</g>
</g>
<g>
	<g>
		<path d="M168,148c-13.255,0-24,10.745-24,24s10.745,24,24,24s24-10.745,24-24S181.255,148,168,148z M168,180c-4.418,0-8-3.582-8-8
			s3.582-8,8-8s8,3.582,8,8S172.418,180,168,180z"/>
	</g>
</g>
<g>
	<g>
		<rect x="232" y="340" width="32" height="16"/>
	</g>
</g>
<g>
</g>
<g>
</g>
<g>
</g>
<g>
</g>
<g>
</g>
<g>
</g>
<g>
</g>
<g>
</g>
<g>
</g>
<g>
</g>
<g>
</g>
<g>
</g>
<g>
</g>
<g>
</g>
<g>
</g>
</svg>
