<svg id="Capa_1" style="fill:#712efc;" height="512" viewBox="0 0 531.765 531.765" width="512" xmlns="http://www.w3.org/2000/svg"><path d="m415.441 365.588h-16.618v-99.706c0-73.303-59.638-132.941-132.941-132.941s-132.941 59.639-132.941 132.941v99.706h-16.618c-9.185 0-16.618 7.432-16.618 16.618s7.433 16.618 16.618 16.618h49.853v116.323c0 9.185 7.433 16.618 16.618 16.618s16.618-7.433 16.618-16.618v-116.324h132.941v116.323c0 9.185 7.432 16.618 16.618 16.618s16.618-7.433 16.618-16.618v-116.323h49.853c9.185 0 16.618-7.432 16.618-16.618s-7.434-16.617-16.619-16.617zm-249.265 0v-99.706c0-54.981 44.725-99.706 99.706-99.706s99.706 44.725 99.706 99.706v99.706z"/><path id="path-1_37_" d="m465.294 249.265h66.471v33.235h-66.471z" transform="translate(14 7.5)"/><path id="path-1_36_" d="m0 249.265h66.471v33.235h-66.471z" transform="translate(0 7.5)"/><path d="m249.265 0h33.235v66.471h-33.235z"/><path d="m-13.565 108.874h33.232v66.464h-33.232z" transform="matrix(.707 -.707 .707 .707 -1.263 3.05)"/><path d="m205.363 351.135h66.464v33.232h-66.464z" transform="matrix(.707 -.707 .707 .707 1.636 10.05)"/></svg>