<?xml version="1.0" standalone="no"?>
<!DOCTYPE svg PUBLIC "-//W3C//DTD SVG 20010904//EN"
 "http://www.w3.org/TR/2001/REC-SVG-20010904/DTD/svg10.dtd">
<svg version="1.0" xmlns="http://www.w3.org/2000/svg"
 width="700.000000pt" height="700.000000pt" viewBox="0 0 700.000000 700.000000"
 preserveAspectRatio="xMidYMid meet">
<metadata>
Created by potrace 1.11, written by Peter Selinger 2001-2013
</metadata>
<g transform="translate(0.000000,700.000000) scale(0.100000,-0.100000)"
fill="#000000" stroke="none">
<path d="M5 6321 c-3 -2 -5 -1025 -5 -2273 0 -2153 1 -2268 18 -2269 9 -1
1584 -2 3499 -3 l3483 -1 0 2275 0 2276 -3495 0 c-1923 0 -3498 -2 -3500 -5z
m4498 -764 l29 -10 -195 -196 c-212 -214 -201 -195 -212 -336 l-6 -70 139
-139 140 -139 53 7 c30 3 77 9 104 12 50 5 52 7 247 202 170 169 198 193 205
176 14 -33 9 -255 -6 -309 -52 -185 -166 -325 -335 -410 -142 -71 -296 -89
-446 -52 l-55 14 -40 -38 c-31 -28 -51 -38 -87 -42 -36 -5 -46 -3 -42 7 3 8
-47 65 -117 135 l-123 121 -24 -22 c-14 -13 -59 -58 -101 -100 l-76 -77 -53
50 c-29 28 -52 54 -50 59 2 5 72 79 156 163 145 147 152 156 142 181 -41 110
-31 303 24 434 77 183 248 329 441 376 68 17 244 19 288 3z m-2017 -253 c56
-44 114 -88 129 -99 70 -50 93 -81 125 -166 l31 -85 390 -390 389 -389 81 80
c45 44 92 90 104 102 l21 22 72 -74 c70 -72 79 -85 65 -98 -3 -4 -14 -25 -24
-47 l-18 -40 22 5 c12 2 42 6 67 9 25 3 70 8 101 11 l55 6 453 -452 453 -452
-6 -75 c-3 -40 -9 -97 -12 -125 l-6 -52 -211 -212 -212 -212 -60 -5 c-33 -3
-89 -8 -124 -12 l-64 -6 -453 453 -454 454 6 60 c3 33 9 87 14 120 4 33 6 61
5 63 -1 2 -18 -5 -36 -16 -65 -35 -64 -36 -139 38 -38 38 -70 73 -70 77 0 5
43 51 95 102 52 51 95 96 95 100 0 3 -177 182 -392 397 l-393 390 -84 30 c-95
33 -67 3 -338 359 -5 6 -14 18 -21 26 -11 14 2 30 89 118 l101 101 27 -19 c14
-10 71 -54 127 -97z m718 -1249 l56 -54 -100 -102 c-55 -56 -99 -103 -98 -105
44 -51 246 -244 255 -244 8 0 10 -13 7 -42 -4 -32 -15 -53 -43 -83 -34 -36
-37 -43 -29 -70 21 -70 29 -206 16 -285 -41 -255 -249 -477 -493 -526 -53 -11
-242 -11 -279 -1 -29 8 -29 9 166 205 213 215 201 195 214 337 l6 71 -138 138
-137 138 -66 -6 c-154 -14 -126 3 -342 -212 -108 -108 -199 -192 -202 -188
-16 27 -24 195 -12 254 3 14 7 37 10 53 17 92 107 249 182 317 68 63 157 115
243 145 76 26 98 29 205 28 77 0 136 -6 165 -15 l46 -15 154 157 c85 87 156
158 157 159 0 0 26 -24 57 -54z"/>
<path d="M2108 1031 c-191 -190 -345 -347 -342 -350 7 -8 3474 -8 3474 -1 0 3
-155 160 -345 350 l-345 345 -1047 0 -1048 1 -347 -345z"/>
</g>
</svg>
